<?xml version="1.0" encoding="UTF-8"?>
<svg width="91px" height="27px" viewBox="0 0 91 27" version="1.1" xmlns="http://www.w3.org/2000/svg" xmlns:xlink="http://www.w3.org/1999/xlink">
    <!-- Generator: Sketch 42 (36781) - http://www.bohemiancoding.com/sketch -->
    <title>idle-logo</title>
    <desc>Created with Sketch.</desc>
    <defs></defs>
    <g id="Page-1" stroke="none" stroke-width="1" fill="none" fill-rule="evenodd">
        <g id="Desktop-HD" transform="translate(-1189.000000, -402.000000)" fill="#FFFFFF">
            <g id="idle-logo" transform="translate(1189.000000, 402.000000)">
                <path d="M7.164,17.486 C6.51599676,19.9460123 6.192,21.5539962 6.192,22.31 C6.192,23.0660038 6.29999892,23.444 6.516,23.444 C6.66000072,23.444 7.2119952,23.2160023 8.172,22.76 L8.604,22.544 L9.216,23.804 C8.99999892,23.996001 8.7120018,24.2359986 8.352,24.524 C7.9919982,24.8120014 7.32000492,25.2019975 6.336,25.694 C5.35199508,26.1860025 4.4400042,26.432 3.6,26.432 C2.7599958,26.432 2.1000024,26.1740026 1.62,25.658 C1.1399976,25.1419974 0.9,24.4460044 0.9,23.57 C0.9,22.6939956 1.199997,21.1340112 1.8,18.89 C2.400003,16.6459888 2.7,15.1880034 2.7,14.516 C2.7,13.507995 2.38800312,12.5600044 1.764,11.672 L1.44,11.24 L1.476,10.772 C2.74800636,10.4119982 4.81198572,10.232 7.668,10.232 C7.98000156,10.5920018 8.136,11.275995 8.136,12.284 C8.136,13.292005 7.81200324,15.0259877 7.164,17.486 Z M3.312,4.4 C3.312,3.60799604 3.6419967,2.912003 4.302,2.312 C4.9620033,1.711997 5.72399568,1.412 6.588,1.412 C7.45200432,1.412 8.1239976,1.6519976 8.604,2.132 C9.0840024,2.6120024 9.324,3.2419961 9.324,4.022 C9.324,4.8020039 8.98200342,5.491997 8.298,6.092 C7.61399658,6.692003 6.8520042,6.992 6.012,6.992 C5.1719958,6.992 4.5120024,6.75800234 4.032,6.29 C3.5519976,5.82199766 3.312,5.19200396 3.312,4.4 Z" id="i"></path>
                <path d="M53.3144531,0.23046875 L53.3144531,26 L46.6171875,26 L46.6171875,23.2402344 C45.6796828,24.4121152 44.8242226,25.2031229 44.0507812,25.6132812 C43.0195261,26.1523464 41.8711001,26.421875 40.6054688,26.421875 C38.0624873,26.421875 36.1201239,25.4550878 34.7783203,23.5214844 C33.4365167,21.587881 32.765625,19.2382951 32.765625,16.4726562 C32.765625,13.3788908 33.5068285,11.011727 34.9892578,9.37109375 C36.4716871,7.73046055 38.3554573,6.91015625 40.640625,6.91015625 C41.7539118,6.91015625 42.7646439,7.09765437 43.6728516,7.47265625 C44.5810592,7.84765813 45.3867152,8.4101525 46.0898438,9.16015625 L46.0898438,0.23046875 L53.3144531,0.23046875 Z M46.1425781,16.6132812 C46.1425781,15.1484302 45.8320344,14.0556677 45.2109375,13.3349609 C44.5898406,12.6142542 43.8046922,12.2539062 42.8554688,12.2539062 C42.0234333,12.2539062 41.3261747,12.5996059 40.7636719,13.2910156 C40.2011691,13.9824253 39.9199219,15.14257 39.9199219,16.7714844 C39.9199219,18.2949295 40.209958,19.4111293 40.7900391,20.1201172 C41.3701201,20.8291051 42.0878863,21.1835938 42.9433594,21.1835938 C43.8574264,21.1835938 44.6191376,20.8261754 45.2285156,20.1113281 C45.8378937,19.3964808 46.1425781,18.2304768 46.1425781,16.6132812 Z M57.9199219,0.23046875 L65.0917969,0.23046875 L65.0917969,26 L57.9199219,26 L57.9199219,0.23046875 Z M90.3867188,18.4414062 L76.0429688,18.4414062 C76.1718756,19.5898495 76.4824194,20.4453097 76.9746094,21.0078125 C77.6660191,21.8164103 78.5683538,22.2207031 79.6816406,22.2207031 C80.3847691,22.2207031 81.0527312,22.0449236 81.6855469,21.6933594 C82.0722676,21.470702 82.488279,21.0781278 82.9335938,20.515625 L89.9824219,21.1660156 C88.9042915,23.041025 87.6035232,24.3857381 86.0800781,25.2001953 C84.556633,26.0146525 82.371108,26.421875 79.5234375,26.421875 C77.0507689,26.421875 75.1054758,26.0732457 73.6875,25.3759766 C72.2695242,24.6787075 71.0947312,23.5712967 70.1630859,22.0537109 C69.2314407,20.5361252 68.765625,18.7519634 68.765625,16.7011719 C68.765625,13.7831885 69.700186,11.421884 71.5693359,9.6171875 C73.4384859,7.81249098 76.0195148,6.91015625 79.3125,6.91015625 C81.9843884,6.91015625 84.0937423,7.31444908 85.640625,8.12304688 C87.1875077,8.93164467 88.3652303,10.1035079 89.1738281,11.6386719 C89.9824259,13.1738358 90.3867188,15.1718627 90.3867188,17.6328125 L90.3867188,18.4414062 Z M83.109375,15.0136719 C82.9687493,13.6308525 82.5966827,12.640628 81.9931641,12.0429688 C81.3896454,11.4453095 80.595708,11.1464844 79.6113281,11.1464844 C78.4746037,11.1464844 77.5664096,11.5976517 76.8867188,12.5 C76.4531228,13.0625028 76.177735,13.9003851 76.0605469,15.0136719 L83.109375,15.0136719 Z" id="dle"></path>
                <text id="•" font-family="Arial-Black, Arial Black" font-size="20" font-weight="700">
                    <tspan x="17" y="23">•</tspan>
                </text>
            </g>
        </g>
    </g>
</svg>